# xmcd
# Copyright (C) 1995-1998 Ti Kan
#
# Track frame offsets:
#       150
#       27384
#       55412
#       81063
#       112449
#       142837
#       171515
#       200742
#       239285
#       293795
#
# Disc length: 4325 seconds
#
# Revision: 0
# Processed by: cddbd v1.5.2PL0 Copyright (c) Steve Scherf et al.
# Submitted via: CD-Transfer v1.0
#
DISCID=9810e30a
DTITLE=Clubbing 179 - 
DYEAR=1900
DGENRE=
TTITLE0=Stup Od Soli (House Remix)
TTITLE1=Soul Brother (Funky Brow Mix)
TTITLE2=Rollerskating Jam (Disco Mix)
TTITLE3=Good Times (Aristo Classic Mix)
TTITLE4=Keep On Jumping (Re-Tide's Disco Mix)
TTITLE5=Take Me Up (Logo's Mix)
TTITLE6=Moov To Tha Beat (Original Mix)
TTITLE7=L.a. Funk (Vocal Mix)
TTITLE8=Dance (Dsco Heat) (Louie Vega Remix)
TTITLE9=Dance In Chant (Original Mix)
EXTD=
EXTT0=
EXTT1=
EXTT2=
EXTT3=
EXTT4=
EXTT5=
EXTT6=
EXTT7=
EXTT8=
EXTT9=
PLAYORDER=
